<?xml version="1.0" ?><!DOCTYPE svg  PUBLIC '-//W3C//DTD SVG 1.1//EN'  'http://www.w3.org/Graphics/SVG/1.1/DTD/svg11.dtd'><svg enable-background="new 0 0 96 96" height="96px" id="Layer_1" version="1.1" viewBox="0 0 96 96" width="96px" xml:space="preserve" xmlns="http://www.w3.org/2000/svg" xmlns:xlink="http://www.w3.org/1999/xlink"><g><path clip-rule="evenodd" d="M48,94.871C22.113,94.871,1.129,73.887,1.129,48   C1.129,22.114,22.113,1.128,48,1.128c25.886,0,46.871,20.985,46.871,46.872C94.871,73.887,73.886,94.871,48,94.871" fill="#4FA7A0" fill-rule="evenodd"/><path clip-rule="evenodd" d="M26.13,52.461l0.021,0.018c0.043,0.039,0.089,0.076,0.136,0.111   c0.075,0.104,0.162,0.197,0.259,0.283c0.043,0.039,0.089,0.076,0.136,0.111c0.075,0.104,0.162,0.197,0.259,0.285   c0.044,0.037,0.089,0.076,0.137,0.109c0.075,0.104,0.161,0.199,0.259,0.285c0.043,0.039,0.089,0.076,0.136,0.111   c0.075,0.102,0.162,0.197,0.259,0.283c0.043,0.039,0.089,0.076,0.136,0.111c0.075,0.102,0.162,0.197,0.259,0.283   c0.044,0.039,0.089,0.076,0.137,0.111c0.075,0.102,0.161,0.197,0.259,0.283c0.039,0.035,0.08,0.07,0.123,0.102v-2.438v-1.205   l-0.003,0.004l0,0l-0.03,0.043l-0.049,0.055c-0.071,0.08-0.148,0.158-0.231,0.232c-0.082,0.072-0.168,0.143-0.255,0.205   c-0.276,0.197-0.591,0.354-0.93,0.459C26.822,52.404,26.48,52.459,26.13,52.461 M94.446,54.32L67.352,27.189v0.674v1h-0.539   l0.051,0.004l0.021,0.001l0.046,0.002l0.06,0.01l0.02,0.003l0.169,0.027l0.151,0.082l0.035,0.019l0.122,0.067l0.097,0.093   c0.196,0.191,0.318,0.432,0.399,0.691h-0.002l0.012,0.037l0.002,0.006l0.007,0.02l0.007,0.027l4.452,15.815l0.357,1.27h-0.025   l0.088,0.906l0.034,0.346v0.004l0.001,0.007l0,0c0.046,0.467,0.092,0.929,0.092,1.365c0,0.379-0.088,0.746-0.248,1.086   c-0.158,0.336-0.387,0.639-0.668,0.891c-0.293,0.262-0.642,0.471-1.027,0.609c-0.369,0.135-0.77,0.209-1.183,0.209   c-0.354,0-0.701-0.057-1.028-0.156c-0.339-0.104-0.652-0.262-0.928-0.459l-0.002,0.004c-0.075-0.055-0.164-0.129-0.266-0.221   c-0.09-0.08-0.171-0.162-0.241-0.242l-0.043-0.051l-0.022-0.031v1.211v16.873c0,0.23-0.041,0.455-0.113,0.662   c-0.079,0.223-0.202,0.428-0.356,0.6c-0.14,0.156-0.307,0.287-0.49,0.375l-0.001-0.002c-0.201,0.098-0.418,0.152-0.638,0.152   H45.274h-1h-1h-8.147h-1h-1h-2.083l23.273,23.271C75.147,91.641,91.638,75.152,94.446,54.32z" fill="#38817B" fill-rule="evenodd"/><polygon fill="#FFCB0A" points="44.278,63.639 44.274,63.619 44.274,63.658 44.274,63.697 44.278,63.678 44.278,63.658  "/><line fill="none" stroke="#FFFFFF" stroke-linecap="round" stroke-linejoin="round" stroke-miterlimit="2.6131" stroke-width="1.9998" x1="28.644" x2="28.644" y1="51.311" y2="69.389"/><path d="   M28.644,69.389c0,0.984,0.719,1.787,1.6,1.787" fill="none" stroke="#FFFFFF" stroke-linecap="round" stroke-linejoin="round" stroke-miterlimit="2.6131" stroke-width="1.9998"/><line fill="none" stroke="#FFFFFF" stroke-linecap="round" stroke-linejoin="round" stroke-miterlimit="2.6131" stroke-width="1.9998" x1="30.243" x2="65.753" y1="71.176" y2="71.176"/><path d="   M65.753,71.176c0.88,0,1.599-0.803,1.599-1.787" fill="none" stroke="#FFFFFF" stroke-linecap="round" stroke-linejoin="round" stroke-miterlimit="2.6131" stroke-width="1.9998"/><line fill="none" stroke="#FFFFFF" stroke-linecap="round" stroke-linejoin="round" stroke-miterlimit="2.6131" stroke-width="1.9998" x1="67.352" x2="67.352" y1="69.389" y2="51.309"/><line fill="none" stroke="#FFFFFF" stroke-linecap="round" stroke-linejoin="round" stroke-miterlimit="2.6131" stroke-width="1.9998" x1="28.644" x2="28.644" y1="28.988" y2="26.475"/><path d="   M28.644,26.475c0-0.908,0.719-1.65,1.6-1.65" fill="none" stroke="#FFFFFF" stroke-linecap="round" stroke-linejoin="round" stroke-miterlimit="2.6131" stroke-width="1.9998"/><line fill="none" stroke="#FFFFFF" stroke-linecap="round" stroke-linejoin="round" stroke-miterlimit="2.6131" stroke-width="1.9998" x1="30.243" x2="65.753" y1="24.824" y2="24.824"/><path d="   M65.753,24.824c0.88,0,1.599,0.742,1.599,1.65" fill="none" stroke="#FFFFFF" stroke-linecap="round" stroke-linejoin="round" stroke-miterlimit="2.6131" stroke-width="1.9998"/><line fill="none" stroke="#FFFFFF" stroke-linecap="round" stroke-linejoin="round" stroke-miterlimit="2.6131" stroke-width="1.9998" x1="67.352" x2="67.352" y1="26.475" y2="29"/><line fill="none" stroke="#FFFFFF" stroke-linecap="round" stroke-linejoin="round" stroke-miterlimit="2.6131" stroke-width="1.9998" x1="29.172" x2="29.316" y1="50.266" y2="50.266"/><path d="   M29.316,50.266c0.307,1.256,1.558,2.195,3.054,2.195s2.747-0.939,3.053-2.195" fill="none" stroke="#FFFFFF" stroke-linecap="round" stroke-linejoin="round" stroke-miterlimit="2.6131" stroke-width="1.9998"/><line fill="none" stroke="#FFFFFF" stroke-linecap="round" stroke-linejoin="round" stroke-miterlimit="2.6131" stroke-width="1.9998" x1="35.423" x2="35.568" y1="50.266" y2="50.266"/><path d="   M35.568,50.266c0.307,1.256,1.558,2.195,3.054,2.195s2.746-0.939,3.053-2.195" fill="none" stroke="#FFFFFF" stroke-linecap="round" stroke-linejoin="round" stroke-miterlimit="2.6131" stroke-width="1.9998"/><line fill="none" stroke="#FFFFFF" stroke-linecap="round" stroke-linejoin="round" stroke-miterlimit="2.6131" stroke-width="1.9998" x1="41.675" x2="41.82" y1="50.266" y2="50.266"/><path d="   M41.82,50.266c0.307,1.256,1.557,2.195,3.054,2.195c1.496,0,2.746-0.939,3.053-2.195" fill="none" stroke="#FFFFFF" stroke-linecap="round" stroke-linejoin="round" stroke-miterlimit="2.6131" stroke-width="1.9998"/><line fill="none" stroke="#FFFFFF" stroke-linecap="round" stroke-linejoin="round" stroke-miterlimit="2.6131" stroke-width="1.9998" x1="47.927" x2="48.072" y1="50.266" y2="50.266"/><path d="   M48.072,50.266c0.307,1.256,1.557,2.195,3.053,2.195c1.497,0,2.747-0.939,3.054-2.195" fill="none" stroke="#FFFFFF" stroke-linecap="round" stroke-linejoin="round" stroke-miterlimit="2.6131" stroke-width="1.9998"/><line fill="none" stroke="#FFFFFF" stroke-linecap="round" stroke-linejoin="round" stroke-miterlimit="2.6131" stroke-width="1.9998" x1="54.179" x2="54.324" y1="50.266" y2="50.266"/><path d="   M54.324,50.266c0.307,1.256,1.558,2.195,3.054,2.195s2.746-0.939,3.054-2.195" fill="none" stroke="#FFFFFF" stroke-linecap="round" stroke-linejoin="round" stroke-miterlimit="2.6131" stroke-width="1.9998"/><line fill="none" stroke="#FFFFFF" stroke-linecap="round" stroke-linejoin="round" stroke-miterlimit="2.6131" stroke-width="1.9998" x1="60.432" x2="60.576" y1="50.266" y2="50.266"/><path d="   M60.576,50.266c0.308,1.256,1.558,2.195,3.054,2.195s2.747-0.939,3.054-2.195" fill="none" stroke="#FFFFFF" stroke-linecap="round" stroke-linejoin="round" stroke-miterlimit="2.6131" stroke-width="1.9998"/><line fill="none" stroke="#FFFFFF" stroke-linecap="round" stroke-linejoin="round" stroke-miterlimit="2.6131" stroke-width="1.9998" x1="66.684" x2="66.828" y1="50.266" y2="50.266"/><path d="   M66.828,50.266c0.307,1.256,1.558,2.195,3.054,2.195c1.727,0,3.126-1.252,3.126-2.795c0-0.827-0.162-1.742-0.187-2.619" fill="none" stroke="#FFFFFF" stroke-linecap="round" stroke-linejoin="round" stroke-miterlimit="2.6131" stroke-width="1.9998"/><line fill="none" stroke="#FFFFFF" stroke-linecap="round" stroke-linejoin="round" stroke-miterlimit="2.6131" stroke-width="1.9998" x1="72.821" x2="68.002" y1="47.047" y2="29.928"/><path d="   M68.002,29.928c-0.158-0.568-0.537-1.064-1.189-1.064" fill="none" stroke="#FFFFFF" stroke-linecap="round" stroke-linejoin="round" stroke-miterlimit="2.6131" stroke-width="1.9998"/><line fill="none" stroke="#FFFFFF" stroke-linecap="round" stroke-linejoin="round" stroke-miterlimit="2.6131" stroke-width="1.9998" x1="66.813" x2="29.163" y1="28.863" y2="28.863"/><path d="   M29.163,28.863c-0.649,0-1.032,0.5-1.191,1.064" fill="none" stroke="#FFFFFF" stroke-linecap="round" stroke-linejoin="round" stroke-miterlimit="2.6131" stroke-width="1.9998"/><line fill="none" stroke="#FFFFFF" stroke-linecap="round" stroke-linejoin="round" stroke-miterlimit="2.6131" stroke-width="1.9998" x1="27.972" x2="23.156" y1="29.928" y2="47.037"/><path d="   M23.156,47.037c-0.057,0.859-0.164,1.773-0.164,2.629c0,1.543,1.399,2.795,3.126,2.795c1.495,0,2.746-0.939,3.054-2.195" fill="none" stroke="#FFFFFF" stroke-linecap="round" stroke-linejoin="round" stroke-miterlimit="2.6131" stroke-width="1.9998"/><line fill="none" stroke="#FFFFFF" stroke-linecap="round" stroke-linejoin="round" stroke-miterlimit="2.6131" stroke-width="1.9998" x1="23.167" x2="72.829" y1="47.037" y2="47.037"/><line fill="none" stroke="#FFFFFF" stroke-linecap="round" stroke-linejoin="round" stroke-miterlimit="2.6131" stroke-width="1.9998" x1="47.998" x2="47.998" y1="43.737" y2="32.112"/><line fill="none" stroke="#FFFFFF" stroke-linecap="round" stroke-linejoin="round" stroke-miterlimit="2.6131" stroke-width="1.9998" x1="53.98" x2="53.157" y1="43.737" y2="32.112"/><line fill="none" stroke="#FFFFFF" stroke-linecap="round" stroke-linejoin="round" stroke-miterlimit="2.6131" stroke-width="1.9998" x1="41.648" x2="42.473" y1="43.737" y2="32.112"/><line fill="none" stroke="#FFFFFF" stroke-linecap="round" stroke-linejoin="round" stroke-miterlimit="2.6131" stroke-width="1.9998" x1="60.213" x2="58.564" y1="43.737" y2="32.112"/><line fill="none" stroke="#FFFFFF" stroke-linecap="round" stroke-linejoin="round" stroke-miterlimit="2.6131" stroke-width="1.9998" x1="35.416" x2="37.065" y1="43.737" y2="32.112"/><line fill="none" stroke="#FFFFFF" stroke-linecap="round" stroke-linejoin="round" stroke-miterlimit="2.6131" stroke-width="1.9998" x1="66.223" x2="63.748" y1="43.737" y2="32.112"/><line fill="none" stroke="#FFFFFF" stroke-linecap="round" stroke-linejoin="round" stroke-miterlimit="2.6131" stroke-width="1.9998" x1="29.406" x2="31.881" y1="43.737" y2="32.112"/><polyline fill="none" points="   34.127,71.176 44.274,71.176 44.274,58.473  " stroke="#FFFFFF" stroke-linecap="round" stroke-linejoin="round" stroke-miterlimit="2.6131" stroke-width="1.9998"/><path d="   M44.274,58.473c0-0.906-0.745-1.65-1.649-1.65" fill="none" stroke="#FFFFFF" stroke-linecap="round" stroke-linejoin="round" stroke-miterlimit="2.6131" stroke-width="1.9998"/><line fill="none" stroke="#FFFFFF" stroke-linecap="round" stroke-linejoin="round" stroke-miterlimit="2.6131" stroke-width="1.9998" x1="42.625" x2="35.776" y1="56.822" y2="56.822"/><path d="   M35.776,56.822c-0.905,0-1.649,0.746-1.649,1.65" fill="none" stroke="#FFFFFF" stroke-linecap="round" stroke-linejoin="round" stroke-miterlimit="2.6131" stroke-width="1.9998"/><line fill="none" stroke="#FFFFFF" stroke-linecap="round" stroke-linejoin="round" stroke-miterlimit="2.6131" stroke-width="1.9998" x1="34.127" x2="34.127" y1="58.473" y2="71.176"/><line fill="none" stroke="#FFFFFF" stroke-linecap="round" stroke-linejoin="round" stroke-miterlimit="2.6131" stroke-width="1.9998" x1="40.824" x2="41.62" y1="66.875" y2="66.875"/><line fill="none" stroke="#FFFFFF" stroke-linecap="round" stroke-linejoin="round" stroke-miterlimit="2.6131" stroke-width="1.9998" x1="44.275" x2="34.41" y1="63.658" y2="63.658"/><line fill="none" stroke="#FFFFFF" stroke-linecap="round" stroke-linejoin="round" stroke-miterlimit="2.6131" stroke-width="1.9998" x1="53.966" x2="60.809" y1="56.822" y2="56.822"/><path d="   M60.809,56.822c1.09,0,1.98,0.891,1.98,1.98" fill="none" stroke="#FFFFFF" stroke-linecap="round" stroke-linejoin="round" stroke-miterlimit="2.6131" stroke-width="1.9998"/><line fill="none" stroke="#FFFFFF" stroke-linecap="round" stroke-linejoin="round" stroke-miterlimit="2.6131" stroke-width="1.9998" x1="62.789" x2="62.789" y1="58.803" y2="64.861"/><path d="   M62.789,64.861c0,1.09-0.891,1.98-1.98,1.98" fill="none" stroke="#FFFFFF" stroke-linecap="round" stroke-linejoin="round" stroke-miterlimit="2.6131" stroke-width="1.9998"/><line fill="none" stroke="#FFFFFF" stroke-linecap="round" stroke-linejoin="round" stroke-miterlimit="2.6131" stroke-width="1.9998" x1="60.809" x2="53.966" y1="66.842" y2="66.842"/><path d="   M53.966,66.842c-1.09,0-1.98-0.891-1.98-1.98" fill="none" stroke="#FFFFFF" stroke-linecap="round" stroke-linejoin="round" stroke-miterlimit="2.6131" stroke-width="1.9998"/><line fill="none" stroke="#FFFFFF" stroke-linecap="round" stroke-linejoin="round" stroke-miterlimit="2.6131" stroke-width="1.9998" x1="51.985" x2="51.985" y1="64.861" y2="58.803"/><path d="   M51.985,58.803c0-1.09,0.891-1.98,1.98-1.98" fill="none" stroke="#FFFFFF" stroke-linecap="round" stroke-linejoin="round" stroke-miterlimit="2.6131" stroke-width="1.9998"/><line fill="none" stroke="#FFFFFF" stroke-linecap="round" stroke-linejoin="round" stroke-miterlimit="2.6131" stroke-width="1.9998" x1="51.984" x2="62.788" y1="61.834" y2="61.834"/><line fill="none" stroke="#FFFFFF" stroke-linecap="round" stroke-linejoin="round" stroke-miterlimit="2.6131" stroke-width="1.9998" x1="57.387" x2="57.387" y1="66.842" y2="56.822"/></g></svg>