<svg xmlns="http://www.w3.org/2000/svg" xmlns:xlink="http://www.w3.org/1999/xlink" width="151" height="44" viewBox="0 0 151 44">
    <defs>
        <path id="a" d="M0 .15h5.323v5.322H0z"/>
    </defs>
    <g fill="none" fill-rule="evenodd">
        <g fill="#000">
            <path d="M62.127 11.505c2.645 0 4.779.663 6.402 1.988 1.624 1.325 2.467 3.14 2.532 5.446l-5.096.26c-.022-1.035-.365-1.854-1.032-2.457-.667-.603-1.57-.905-2.709-.905-1.118 0-1.994.263-2.628.792-.635.528-.952 1.233-.952 2.116 0 .863.333 1.493 1 1.891.666.4 1.903.814 3.71 1.245 2.773.711 4.831 1.574 6.175 2.586 1.344 1.013 2.016 2.52 2.016 4.525 0 2.436-.834 4.278-2.5 5.528s-3.789 1.874-6.37 1.874c-2.86 0-5.181-.678-6.966-2.036C53.925 33 53.022 31.093 53 28.637l5.064-.259c.042 1.1.494 1.988 1.354 2.667.86.678 1.946 1.018 3.257 1.018 2.537 0 3.806-.926 3.806-2.78 0-.862-.382-1.519-1.145-1.972-.763-.452-2.037-.905-3.821-1.358-1.29-.322-2.334-.63-3.129-.92-.795-.291-1.608-.7-2.435-1.229-.828-.527-1.435-1.196-1.822-2.004s-.581-1.772-.581-2.893c0-2.111.742-3.873 2.226-5.285 1.483-1.411 3.601-2.117 6.353-2.117M93.67 36.039H89.93l-3.354-8.857-3.355 8.857H79.48l-6.386-16.711h5.16l3.245 9.572 3.421-9.572h3.294l3.454 9.566 3.26-9.566h5.16l-6.417 16.71M109.28 22.689c-1.012 0-1.823.297-2.436.889-.612.593-.951 1.417-1.016 2.472h6.709c-.043-1.055-.339-1.879-.887-2.472-.548-.592-1.339-.889-2.37-.889zm7.998 6.497h-11.45c.043 1.056.371 1.886.984 2.489.613.604 1.446.905 2.5.905 1.677 0 2.698-.614 3.063-1.842l4.742.226c-.302 1.595-1.167 2.898-2.597 3.911s-3.123 1.52-5.08 1.52c-2.58 0-4.66-.787-6.24-2.36s-2.37-3.685-2.37-6.335c0-2.672.784-4.79 2.354-6.353 1.569-1.562 3.612-2.343 6.128-2.343 2.429 0 4.364.739 5.805 2.215 1.44 1.475 2.161 3.507 2.161 6.092v1.875zM128.566 22.689c-1.01 0-1.822.297-2.435.889-.613.593-.951 1.417-1.016 2.472h6.709c-.044-1.055-.34-1.879-.887-2.472-.549-.592-1.339-.889-2.371-.889zm7.998 6.497h-11.449c.042 1.056.37 1.886.984 2.489.612.604 1.445.905 2.5.905 1.676 0 2.698-.614 3.063-1.842l4.74.226c-.3 1.595-1.165 2.898-2.595 3.911-1.43 1.013-3.124 1.52-5.08 1.52-2.58 0-4.66-.787-6.24-2.36-1.581-1.573-2.371-3.685-2.371-6.335 0-2.672.784-4.79 2.354-6.353 1.57-1.562 3.613-2.343 6.128-2.343 2.43 0 4.365.739 5.806 2.215 1.44 1.475 2.16 3.507 2.16 6.092v1.875zM146.078 23.4l-.032 6.207c0 .862.237 1.497.71 1.907.473.409 1.075.614 1.806.614.365 0 .849-.054 1.451-.162v4.202c-.903.13-1.774.194-2.612.194-1.892 0-3.382-.469-4.467-1.406-1.086-.937-1.618-2.344-1.596-4.218l.032-7.338h-3.032v-4.072h3.064l.032-5.528h4.709l-.033 5.528h3.903V23.4h-3.935"/>
        </g>
        <path fill="#000" d="M34.811 11.577a2.662 2.662 0 1 1-3.764 3.763 2.662 2.662 0 0 1 3.764-3.763M21.481 28.363l-3.764 3.764-9.41-9.41 3.764-3.763z"/>
        <path fill="#000" d="M34.786 11.557l-3.764 3.764-7.659-7.66 3.764-3.763z"/>
        <path fill="#000" d="M8.307 3.898c-5.196 5.196-5.196 13.622 0 18.82A13.286 13.286 0 0 0 19.6 26.481l-7.528-7.529A7.985 7.985 0 0 1 23.363 7.661l7.528 7.529a13.286 13.286 0 0 0-3.764-11.292C21.93-1.3 13.504-1.3 8.307 3.898"/>
        <path fill="#000" d="M15.835 15.19l3.764-3.764 9.41 9.41-3.764 3.763zM.78 30.245l3.763-3.764 9.41 9.41-3.764 3.764z"/>
        <path fill="#000" d="M29.009 39.655c5.197-5.197 5.197-13.623 0-18.82a13.286 13.286 0 0 0-11.292-3.764l7.528 7.528a7.985 7.985 0 0 1-11.292 11.292l-7.528-7.528a13.286 13.286 0 0 0 3.764 11.292c5.197 5.197 13.623 5.197 18.82 0"/>
        <g transform="translate(0 25.553)">
            <mask id="b" fill="#000">
                <use xlink:href="#a"/>
            </mask>
            <path fill="#000" d="M4.543.929A2.662 2.662 0 1 1 .78 4.692 2.662 2.662 0 0 1 4.543.93" mask="url(#b)"/>
        </g>
        <path fill="#000" d="M19.6 11.425a2.662 2.662 0 1 1-3.765 3.764 2.662 2.662 0 0 1 3.764-3.764M21.32 28.202a2.662 2.662 0 1 1-3.765 3.763 2.662 2.662 0 0 1 3.765-3.763"/>
    </g>
</svg>
