<?xml version="1.0" ?><!DOCTYPE svg  PUBLIC '-//W3C//DTD SVG 1.1//EN'  'http://www.w3.org/Graphics/SVG/1.1/DTD/svg11.dtd'><svg enable-background="new 0 0 96 96" height="96px" id="Layer_1" version="1.1" viewBox="0 0 96 96" width="96px" xml:space="preserve" xmlns="http://www.w3.org/2000/svg" xmlns:xlink="http://www.w3.org/1999/xlink"><g><path clip-rule="evenodd" d="M48,94.871C22.113,94.871,1.129,73.886,1.129,48   C1.129,22.113,22.113,1.129,48,1.129c25.886,0,46.871,20.984,46.871,46.871C94.871,73.886,73.886,94.871,48,94.871" fill="#4FA7A0" fill-rule="evenodd"/><path clip-rule="evenodd" d="M28.328,68.86l0.021,0.016l25.598,25.621   C73.07,92.077,88.6,78.132,93.361,59.841l-28.79-28.787c0.03,0.161,0.061,0.321,0.09,0.481c0.087,0.483,0.165,0.963,0.239,1.434   l3.501,31.466c0.534,3.678,0.344,4.422-3.286,4.422h-5.052h-0.001l-0.026,0.229l0.026-0.229L28.328,68.86z" fill="#38817B" fill-rule="evenodd"/><path d="   M57.353,26.949c-9.472,0-9.082,0-18.554-0.001c-6.486-0.08-9.113,4.521-6.822,8.49l3.035,0.005l-5.091,25.204l-2.092,4.468   c-0.722,1.679-0.696,3.808,1.377,3.8l36.295-0.003c3.256,0,3.427-0.667,2.948-3.967l-3.141-28.232   C64.61,32.271,63.485,26.949,57.353,26.949z" fill="none" stroke="#FFFFFF" stroke-linecap="round" stroke-linejoin="round" stroke-miterlimit="22.9256" stroke-width="1.9943"/><line fill="none" stroke="#FFFFFF" stroke-linecap="round" stroke-linejoin="round" stroke-miterlimit="22.9256" stroke-width="1.9943" x1="53.903" x2="34.888" y1="35.444" y2="35.443"/><path d="   M58.453,27.01c-2.028,0-4.788,1.664-5.752,3.722c-0.682,1.457-0.961,4.732,1.984,4.792" fill="none" stroke="#FFFFFF" stroke-linecap="round" stroke-linejoin="round" stroke-miterlimit="22.9256" stroke-width="1.9997"/><line fill="none" stroke="#FFFFFF" stroke-linecap="round" stroke-linejoin="round" stroke-miterlimit="22.9256" stroke-width="1.9943" x1="61.915" x2="30.106" y1="60.681" y2="60.722"/><line fill="none" stroke="#FFFFFF" stroke-linecap="round" stroke-linejoin="round" stroke-miterlimit="22.9256" stroke-width="1.9943" x1="63.56" x2="33.875" y1="42.487" y2="42.388"/><path d="   M54.439,35.515c0.119,0.012,0.236,0.02,0.351,0.024c3.022,0.129,4.646-1.9,4.676-4.042c-1.96-0.105-4.277-0.125-6.976-0.13" fill="none" stroke="#FFFFFF" stroke-linecap="round" stroke-linejoin="round" stroke-miterlimit="22.9256" stroke-width="1.9998"/><line fill="none" stroke="#FFFFFF" stroke-miterlimit="22.9256" stroke-width="1.9998" x1="64.91" x2="60.916" y1="34.593" y2="69.091"/></g></svg>